<svg width="14" height="14" viewBox="0 0 14 14" fill="none" xmlns="http://www.w3.org/2000/svg">
<path fill-rule="evenodd" clip-rule="evenodd" d="M7.00004 10.0502L3.25576 12.7247C2.86967 13.0004 2.33337 12.7245 2.33337 12.25V2.91666C2.33337 1.95016 3.11688 1.16666 4.08337 1.16666H9.91671C10.8832 1.16666 11.6667 1.95016 11.6667 2.91666V12.25C11.6667 12.7245 11.1304 13.0004 10.7443 12.7247L7.00004 10.0502ZM10.5 11.1165V2.91666C10.5 2.59449 10.2389 2.33332 9.91671 2.33332H4.08337C3.76121 2.33332 3.50004 2.59449 3.50004 2.91666V11.1165L6.66098 8.85864C6.86381 8.71377 7.13627 8.71377 7.3391 8.85864L10.5 11.1165Z" fill="#E5E6E9"/>
</svg>
